<?xml version="1.0" encoding="utf-8"?>
<!-- Generator: Adobe Illustrator 16.0.3, SVG Export Plug-In . SVG Version: 6.00 Build 0)  -->
<!DOCTYPE svg PUBLIC "-//W3C//DTD SVG 1.1//EN" "http://www.w3.org/Graphics/SVG/1.1/DTD/svg11.dtd">
<svg version="1.1" id="Ebene_1" xmlns="http://www.w3.org/2000/svg" xmlns:xlink="http://www.w3.org/1999/xlink" x="0px" y="0px"
	 width="199.843px" height="74.701px" viewBox="0 0 199.843 74.701" enable-background="new 0 0 199.843 74.701"
	 xml:space="preserve">
<rect fill="#C31924" width="199.841" height="36.792"/>
<g enable-background="new    ">
	<path fill="#FFFFFF" d="M12.426,13.404v2.072h-2.25v2.383h2.028v2.072h-2.028v4.633H7.971v-11.16H12.426z"/>
</g>
<g enable-background="new    ">
	<path fill="#FFFFFF" d="M15.992,13.404v11.16h-2.205v-11.16H15.992z"/>
</g>
<g enable-background="new    ">
	<path fill="#FFFFFF" d="M22.682,13.404v2.072h-1.747v9.088H18.73v-9.088h-1.731v-2.072H22.682z"/>
</g>
<g enable-background="new    ">
	<path fill="#FFFFFF" d="M25.804,13.404l2.753,6.734l0.03-0.029c-0.133-0.533-0.178-1.11-0.178-1.688v-5.018h2.206v11.16h-2.087
		l-2.724-6.734l-0.029,0.029l0.104,1.125l0.015,0.459v5.121h-2.205v-11.16H25.804z"/>
</g>
<g enable-background="new    ">
	<path fill="#FFFFFF" d="M36.594,13.404v2.072h-2.235v2.428h1.969v2.072h-1.969v2.516h2.265v2.072h-4.47v-11.16H36.594z"/>
</g>
<g enable-background="new    ">
	<path fill="#FFFFFF" d="M42.528,15.921c-0.444-0.385-0.992-0.711-1.598-0.711c-0.681,0-1.11,0.415-1.11,1.096
		c0,1.835,3.36,1.938,3.36,4.958c0,1.983-1.14,3.479-3.212,3.479c-0.622,0-1.391-0.192-1.895-0.563v-2.102
		c0.518,0.355,1.021,0.592,1.673,0.592c0.71,0,1.273-0.474,1.273-1.214c0-0.858-0.681-1.184-1.303-1.628
		c-1.273-0.858-2.057-1.688-2.057-3.315c0-1.762,1.021-3.286,2.916-3.286c0.71,0,1.347,0.192,1.954,0.548V15.921z"/>
</g>
<g enable-background="new    ">
	<path fill="#FFFFFF" d="M49.041,15.921c-0.444-0.385-0.992-0.711-1.598-0.711c-0.681,0-1.11,0.415-1.11,1.096
		c0,1.835,3.36,1.938,3.36,4.958c0,1.983-1.14,3.479-3.212,3.479c-0.622,0-1.391-0.192-1.895-0.563v-2.102
		c0.518,0.355,1.021,0.592,1.673,0.592c0.71,0,1.273-0.474,1.273-1.214c0-0.858-0.681-1.184-1.303-1.628
		c-1.273-0.858-2.057-1.688-2.057-3.315c0-1.762,1.021-3.286,2.916-3.286c0.71,0,1.347,0.192,1.954,0.548V15.921z"/>
</g>
<g enable-background="new    ">
	<path fill="#FFFFFF" d="M59.164,15.921c-0.444-0.385-0.992-0.711-1.598-0.711c-0.681,0-1.11,0.415-1.11,1.096
		c0,1.835,3.36,1.938,3.36,4.958c0,1.983-1.14,3.479-3.212,3.479c-0.622,0-1.391-0.192-1.895-0.563v-2.102
		c0.518,0.355,1.021,0.592,1.673,0.592c0.71,0,1.273-0.474,1.273-1.214c0-0.858-0.681-1.184-1.303-1.628
		c-1.273-0.858-2.057-1.688-2.057-3.315c0-1.762,1.021-3.286,2.916-3.286c0.71,0,1.347,0.192,1.954,0.548V15.921z"/>
</g>
<g enable-background="new    ">
	<path fill="#FFFFFF" d="M66.209,13.404v2.072h-1.747v9.088h-2.206v-9.088h-1.731v-2.072H66.209z"/>
</g>
<g enable-background="new    ">
	<path fill="#FFFFFF" d="M69.361,13.404v7.223c0,0.844-0.104,2.117,1.095,2.117c1.081,0,1.081-0.814,1.095-1.644v-7.696h2.206v8.141
		c0,1.185-0.133,3.197-3.315,3.197c-2.058,0-3.286-0.962-3.286-3.049v-8.289H69.361z"/>
</g>
<g enable-background="new    ">
	<path fill="#FFFFFF" d="M75.266,24.564v-11.16h1.672c0.385,0,5.003-0.563,5.003,5.669c0,3.183-1.229,5.491-4.707,5.491H75.266z
		 M79.736,19.059c0-1.421-0.444-3.671-2.265-3.671v7.193C79.248,22.67,79.736,20.45,79.736,19.059z"/>
</g>
<g enable-background="new    ">
	<path fill="#FFFFFF" d="M85.3,13.404v11.16h-2.205v-11.16H85.3z"/>
</g>
<g enable-background="new    ">
	<path fill="#FFFFFF" d="M94.314,18.984c0,4.188-1.954,5.758-3.922,5.758c-1.969,0-3.922-1.569-3.922-5.758s1.954-5.758,3.922-5.758
		C92.36,13.227,94.314,14.796,94.314,18.984z M90.392,22.699c1.465,0,1.569-2.827,1.569-3.715c0-0.991-0.104-3.715-1.569-3.715
		s-1.569,2.724-1.569,3.715C88.823,19.872,88.926,22.699,90.392,22.699z"/>
</g>
<g enable-background="new    ">
	<path fill="#FFFFFF" d="M99.094,24.564v-11.16h1.673c0.385,0,5.002-0.563,5.002,5.669c0,3.183-1.229,5.491-4.707,5.491H99.094z
		 M103.564,19.059c0-1.421-0.443-3.671-2.265-3.671v7.193C103.076,22.67,103.564,20.45,103.564,19.059z"/>
</g>
<g enable-background="new    ">
	<path fill="#FFFFFF" d="M111.363,13.404v2.072h-2.234v2.428h1.969v2.072h-1.969v2.516h2.265v2.072h-4.47v-11.16H111.363z"/>
</g>
<g enable-background="new    ">
	<path fill="#FFFFFF" d="M117.298,15.921c-0.443-0.385-0.992-0.711-1.598-0.711c-0.682,0-1.111,0.415-1.111,1.096
		c0,1.835,3.36,1.938,3.36,4.958c0,1.983-1.14,3.479-3.212,3.479c-0.621,0-1.391-0.192-1.895-0.563v-2.102
		c0.518,0.355,1.021,0.592,1.673,0.592c0.71,0,1.272-0.474,1.272-1.214c0-0.858-0.681-1.184-1.303-1.628
		c-1.272-0.858-2.057-1.688-2.057-3.315c0-1.762,1.021-3.286,2.916-3.286c0.71,0,1.347,0.192,1.953,0.548V15.921z"/>
</g>
<g enable-background="new    ">
	<path fill="#FFFFFF" d="M127.421,15.921c-0.443-0.385-0.992-0.711-1.598-0.711c-0.682,0-1.111,0.415-1.111,1.096
		c0,1.835,3.36,1.938,3.36,4.958c0,1.983-1.14,3.479-3.212,3.479c-0.621,0-1.391-0.192-1.895-0.563v-2.102
		c0.518,0.355,1.021,0.592,1.673,0.592c0.71,0,1.272-0.474,1.272-1.214c0-0.858-0.681-1.184-1.303-1.628
		c-1.272-0.858-2.057-1.688-2.057-3.315c0-1.762,1.021-3.286,2.916-3.286c0.71,0,1.347,0.192,1.953,0.548V15.921z"/>
</g>
<g enable-background="new    ">
	<path fill="#FFFFFF" d="M131.046,13.404l1.333,5.358c0.192,0.636,0.267,1.272,0.399,1.909h0.029
		c0.119-0.651,0.163-1.288,0.341-1.939l1.347-5.328h2.309l-3.093,11.16h-1.806l-3.227-11.16H131.046z"/>
</g>
<g enable-background="new    ">
	<path fill="#FFFFFF" d="M145.774,13.404v2.072h-2.25v2.383h2.028v2.072h-2.028v4.633h-2.205v-11.16H145.774z"/>
</g>
<g enable-background="new    ">
	<path fill="#FFFFFF" d="M151.576,13.404v2.072h-2.235v2.428h1.969v2.072h-1.969v2.516h2.265v2.072h-4.47v-11.16H151.576z"/>
</g>
<g enable-background="new    ">
	<path fill="#FFFFFF" d="M155.126,13.404v9.088h2.309v2.072h-4.514v-11.16H155.126z"/>
</g>
<g enable-background="new    ">
	<path fill="#FFFFFF" d="M160.647,13.404v9.088h2.31v2.072h-4.515v-11.16H160.647z"/>
</g>
<g enable-background="new    ">
	<path fill="#FFFFFF" d="M163.962,24.564v-11.16h2.16c0.859,0,1.6,0.029,2.31,0.607c0.74,0.592,1.14,1.583,1.14,2.516
		c0,0.992-0.37,1.747-1.199,2.31c0.918,0.443,1.377,1.628,1.377,2.59c0,2.205-1.629,3.138-3.641,3.138H163.962z M166.167,15.255
		v2.723c0.829,0,1.317-0.562,1.317-1.405C167.485,15.758,167.011,15.21,166.167,15.255z M166.167,19.695v3.019
		c0.889,0.045,1.406-0.606,1.406-1.539C167.574,20.302,167.041,19.665,166.167,19.695z"/>
</g>
<g enable-background="new    ">
	<path fill="#FFFFFF" d="M175.298,13.404l2.68,11.16h-2.354l-0.414-1.88h-2.235l-0.399,1.88h-2.191l2.591-11.16H175.298z
		 M174.322,17.963l-0.252-1.688h-0.029l-0.236,1.688l-0.474,2.976h1.554L174.322,17.963z"/>
</g>
<g enable-background="new    ">
	<path fill="#FFFFFF" d="M184.416,15.506c-0.281-0.073-0.547-0.118-0.828-0.118c-1.939,0-2.783,1.762-2.783,3.479
		c0,1.657,0.844,3.7,2.768,3.7c0.281,0,0.563-0.074,0.844-0.163v2.087c-0.325,0.134-0.666,0.192-1.021,0.192
		c-3.182,0-4.943-2.871-4.943-5.802c0-2.768,1.836-5.609,4.84-5.609c0.385,0,0.756,0.074,1.125,0.207V15.506z"/>
</g>
<g enable-background="new    ">
	<path fill="#FFFFFF" d="M187.731,13.404v4.366h2.235v-4.366h2.205v11.16h-2.205v-4.722h-2.235v4.722h-2.205v-11.16H187.731z"/>
</g>
<line fill="none" stroke="#C31924" stroke-miterlimit="10" x1="0" y1="74.151" x2="199.843" y2="74.151"/>
<g enable-background="new    ">
	<path fill="#C31924" d="M7.132,73.627V36.684h7.153c2.842,0,5.292,0.099,7.644,2.009c2.45,1.96,3.772,5.243,3.772,8.33
		c0,3.282-1.225,5.781-3.968,7.643c3.038,1.471,4.557,5.39,4.557,8.575c0,7.3-5.39,10.387-12.053,10.387H7.132z M14.433,42.809
		v9.016c2.744,0,4.361-1.862,4.361-4.655C18.793,44.475,17.226,42.661,14.433,42.809z M14.433,57.507v9.996
		c2.94,0.146,4.655-2.01,4.655-5.096C19.087,59.516,17.324,57.409,14.433,57.507z"/>
</g>
<g enable-background="new    ">
	<path fill="#C31924" d="M49.32,36.684l8.868,36.943h-7.791l-1.372-6.223h-7.398l-1.323,6.223h-7.251l8.574-36.943H49.32z
		 M46.086,51.774l-0.833-5.585h-0.098l-0.784,5.585l-1.568,9.849h5.145L46.086,51.774z"/>
</g>
<g enable-background="new    ">
	<path fill="#C31924" d="M73.037,36.684v30.084h7.644v6.859H65.736V36.684H73.037z"/>
</g>
<g enable-background="new    ">
	<path fill="#C31924" d="M102.73,36.684l8.869,36.943h-7.791l-1.371-6.223h-7.399l-1.323,6.223h-7.251l8.574-36.943H102.73z
		 M99.497,51.774l-0.833-5.585h-0.098l-0.784,5.585l-1.568,9.849h5.145L99.497,51.774z"/>
</g>
<g enable-background="new    ">
	<path fill="#C31924" d="M126.153,36.684l9.113,22.294l0.099-0.099c-0.441-1.764-0.588-3.675-0.588-5.585v-16.61h7.3v36.943h-6.908
		l-9.016-22.293l-0.098,0.098l0.343,3.724l0.049,1.52v16.952h-7.301V36.684H126.153z"/>
</g>
<g enable-background="new    ">
	<path fill="#C31924" d="M170.251,43.642c-0.931-0.245-1.813-0.393-2.744-0.393c-6.418,0-9.211,5.831-9.211,11.515
		c0,5.487,2.793,12.249,9.162,12.249c0.932,0,1.862-0.245,2.793-0.539v6.908c-1.078,0.441-2.205,0.637-3.381,0.637
		c-10.533,0-16.364-9.505-16.364-19.206c0-9.162,6.075-18.569,16.021-18.569c1.274,0,2.499,0.245,3.724,0.686V43.642z"/>
</g>
<g enable-background="new    ">
	<path fill="#C31924" d="M193.282,36.684v6.859h-7.398v8.036h6.517v6.859h-6.517v8.329h7.497v6.859h-14.797V36.684H193.282z"/>
</g>
</svg>
